<svg xmlns="http://www.w3.org/2000/svg" viewBox="0 0 27.94 29.9"><defs><style>.cls-1{fill:#343333;}</style></defs><g id="Layer_2" data-name="Layer 2"><g id="レイヤー_1" data-name="レイヤー 1"><path class="cls-1" d="M8.39,28.6H6.07l-.83-5.27-.17,0-.85,5.3H1.69V25.11c0-1.37,0-2.73,0-4.1a3,3,0,0,0-.92-2.74,3,3,0,0,1-.72-2c-.1-1.6,0-3.22,0-4.83a3,3,0,0,1,2.7-3c1.59-.12,3.2,0,4.83,0C6.35,11.2,7,14.1,7,16.94a7.76,7.76,0,0,0,1,2.65c.11.25.38.47.38.7C8.4,23,8.39,25.8,8.39,28.6Z"/><path class="cls-1" d="M26.21,28.6H23.69l-.84-5.36h-.17c-.27,1.76-.55,3.51-.83,5.34H19.53V26c0-1.27,0-2.55,0-3.82a4.71,4.71,0,0,1,.8-3.32A4.65,4.65,0,0,0,21,16.41a49.72,49.72,0,0,0,0-5.18,23.69,23.69,0,0,0-.52-2.93,50.14,50.14,0,0,1,5.34.29,2.76,2.76,0,0,1,2.06,2.8,39.7,39.7,0,0,1,0,5,4.72,4.72,0,0,1-1.09,2.3A1.88,1.88,0,0,0,26.21,20c0,2.52,0,5,0,7.56Z"/><path class="cls-1" d="M14.09,7.12A3.57,3.57,0,0,1,10.45,3.6,3.59,3.59,0,0,1,14,0a3.55,3.55,0,0,1,3.57,3.57A3.52,3.52,0,0,1,14.09,7.12Z"/><path class="cls-1" d="M8.41,4.48A3.11,3.11,0,0,1,5.28,7.73,3.12,3.12,0,0,1,1.87,4.39,3.21,3.21,0,0,1,5.09,1.23,3.24,3.24,0,0,1,8.41,4.48Z"/><path class="cls-1" d="M19.51,4.46A3.27,3.27,0,0,1,26,4.5a3.27,3.27,0,1,1-6.53,0Z"/><path class="cls-1" d="M19.37,11A3.2,3.2,0,0,0,16,7.83H11.85a3.33,3.33,0,0,0-3.39,3.31c0,1.7,0,3.4,0,5.1a3.73,3.73,0,0,0,1.29,2.9,1.71,1.71,0,0,1,.51,1.12c.05,2.82,0,5.65,0,8.47v1.15c.72,0,1.32,0,1.92,0s.9-.14,1-.82c.2-1.72.51-3.42.77-5.13h.17c.31,2,.62,3.92.92,5.9h2.45c0-.26.05-.47.05-.67,0-2.86,0-5.71,0-8.57A2,2,0,0,1,18.2,19a4,4,0,0,0,1.13-2.27A52.32,52.32,0,0,0,19.37,11Zm-1.89,4.35H15.41v2.08H12.64V15.31H10.56V12.54h2.08V10.47h2.77v2.07h2.07Z"/></g></g></svg>