<svg xmlns="http://www.w3.org/2000/svg" viewBox="0 0 52.06 33.43"><defs><style>.cls-1{fill:#3c3c3b;}</style></defs><g id="Layer_2" data-name="Layer 2"><g id="レイヤー_1" data-name="レイヤー 1"><path class="cls-1" d="M39.47,12.72V33.43H52.06V19Zm7.65,16.81H43.68V26.09h3.44Zm0-5.88H43.68V20.21h3.44Z"/><path class="cls-1" d="M0,33.43H12.59V12.72L0,19ZM4.94,20.21H8.38v3.44H4.94Zm0,5.88H8.38v3.44H4.94Z"/><path class="cls-1" d="M13.93,33.43h9.71V26.91h4.79v6.52h9.7V0H13.93Zm17-29.91H35V7.57H30.93Zm0,6.93H35V14.5H30.93Zm0,6.92H35v4.06H30.93ZM24,3.52h4V7.57H24Zm0,6.93h4V14.5H24Zm0,6.92h4v4.06H24ZM17.08,3.52h4.05V7.57H17.08Zm0,6.93h4.05V14.5H17.08Zm0,6.92h4.05v4.06H17.08Z"/></g></g></svg>