<svg xmlns="http://www.w3.org/2000/svg" viewBox="0 0 32.59 31.22"><defs><style>.cls-1{fill:#343333;}</style></defs><g id="Layer_2" data-name="Layer 2"><g id="レイヤー_1" data-name="レイヤー 1"><path class="cls-1" d="M4.29,18.07l1.55-1.55V28.87A2.36,2.36,0,0,0,8.2,31.22H24.39a2.35,2.35,0,0,0,2.35-2.35V16.52l1.56,1.55a2.51,2.51,0,1,0,3.55-3.55L18.07.74a2.49,2.49,0,0,0-3.55,0L.74,14.52a2.51,2.51,0,1,0,3.55,3.55ZM22.13,23a.46.46,0,0,1-.23.05.48.48,0,0,1-.45-.27l-1-1.89v.84l.64,2.63a.6.6,0,0,1-.61.6h0v2.29a.61.61,0,0,1-1.21,0V25h-.3v2.29a.6.6,0,0,1-1.2,0V25h0a.6.6,0,0,1-.6-.6l.64-2.63v-1l-1.11,1.81h0l0,0v0l0,0v0l0,0h0l0,0,0,0h-.06l0,0h0l0,0h-.27l0,0h0l0,0h0l0,0h0l0,0v0l0,0h0a.21.21,0,0,1,0-.06h0l-1.14-2.15v6.8a.64.64,0,0,1-1.28,0V23.45H13v3.76a.64.64,0,1,1-1.27,0V20.39l-1.12,1.94a.51.51,0,0,1-.7.19.51.51,0,0,1-.18-.7l2-3.43a.53.53,0,0,1,.43-.26h.4a1.34,1.34,0,1,1,1.3,0h.37a.51.51,0,0,1,.46.27l1.56,2.92,1.46-2.41a.53.53,0,0,1,.43-.25h.57A1.25,1.25,0,0,1,18,17.44a1.29,1.29,0,0,1,.64-1.14v0c0-.2.22-.37.49-.37s.49.17.49.37v0a1.32,1.32,0,0,1,0,2.32h.55a.52.52,0,0,1,.46.27l1.81,3.44A.52.52,0,0,1,22.13,23Z"/></g></g></svg>