<svg xmlns="http://www.w3.org/2000/svg" viewBox="0 0 36.28 35.93"><defs><style>.cls-1{fill:#343333;}</style></defs><g id="Layer_2" data-name="Layer 2"><g id="レイヤー_1" data-name="レイヤー 1"><polygon class="cls-1" points="25.27 12.06 18.14 7.93 11.02 12.07 18.14 16.18 24.22 12.66 25.27 12.06"/><polygon class="cls-1" points="18.74 26.41 25.86 22.3 25.86 13.09 18.74 17.21 18.74 26.41"/><path class="cls-1" d="M26.55,4.4C19.71,3,18.14,0,18.14,0S16.57,3,9.73,4.4,0,4.29,0,4.29.87,28.86,18.14,35.93C35.41,28.86,36.28,4.29,36.28,4.29S33.39,5.79,26.55,4.4Zm.5,18.24a.57.57,0,0,1-.3.51L18.44,28a.61.61,0,0,1-.3.08h-.08a.48.48,0,0,1-.21-.07l-8.32-4.8a.59.59,0,0,1-.3-.51V12a.43.43,0,0,0,0-.05v0s0,0,0-.05v0s0,0,0,0l0,0a.05.05,0,0,1,0,0l0,0s0,0,0,0l0,0h0l.05,0h0l0,0,8.32-4.83a.57.57,0,0,1,.59,0l8.31,4.81h0l.07,0h0l.05.05h0s0,0,0,0l0,0,0,0,0,.06h0l0,.06h0s0,0,0,.06v0a.19.19,0,0,1,0,.08Z"/><polygon class="cls-1" points="10.42 22.3 17.55 26.41 17.55 17.21 10.43 13.1 10.42 22.3"/></g></g></svg>