<svg xmlns="http://www.w3.org/2000/svg" viewBox="0 0 29.92 30.73"><defs><style>.cls-1{fill:#343333;}</style></defs><g id="Layer_2" data-name="Layer 2"><g id="レイヤー_1" data-name="レイヤー 1"><path class="cls-1" d="M27.58,20.36c-1.61.56-5.85,2.16-7.59,2.23s-4.95.07-4.95.07S20,22,20.4,21.61s.63-2.71-1.6-2.3-7.73,1.12-9.4,1.26a8.71,8.71,0,0,0-5.08,2.3C3.13,24.12,0,28.16,0,28.16l4,2.57s3.69-3.34,6-3.83,8.63-.2,11.56-.9,8.08-3.34,8.35-4S29.18,19.8,27.58,20.36Z"/><path class="cls-1" d="M10.18,10,11,9.18V16a1.31,1.31,0,0,0,1.31,1.31h9A1.31,1.31,0,0,0,22.66,16V9.18l.86.86a1.36,1.36,0,0,0,1,.41,1.38,1.38,0,0,0,1-.41,1.4,1.4,0,0,0,0-2L17.84.41a1.39,1.39,0,0,0-2,0L8.2,8.07a1.4,1.4,0,0,0,2,2ZM14.54,10h4.62v4.18H14.54Z"/></g></g></svg>