<svg xmlns="http://www.w3.org/2000/svg" viewBox="0 0 37.04 28.89"><defs><style>.cls-1{fill:#343333;fill-rule:evenodd;}</style></defs><g id="Layer_2" data-name="Layer 2"><g id="レイヤー_1" data-name="レイヤー 1"><path class="cls-1" d="M18.53,1.65c-4.68-5.56-15.8,4,0,12.64,15.78-8.63,4.66-18.2,0-12.64ZM16.11,28.89c-.21-6.07,1.73-11.4-4.67-14.89C8.62,12.46,8,10.33,6.66,8.56s-5.75.06-3.34,3.18,4.76,6.18,5.74,7.44-.07,1.43-.79.49L2.62,12.35a4.28,4.28,0,0,1-.76-3.8A3.29,3.29,0,0,1,4.44,6.9c0-2.31,0-2.35,0-4.13S1.61-.57,1.23,1.84-.42,10.71.14,13.62c1,5.31,5.32,7.43,8.08,11.83v3.44Zm4.82,0c.21-6.07-1.73-11.4,4.67-14.89,2.83-1.54,3.43-3.67,4.8-5.44s5.73.06,3.32,3.18S29,17.92,28,19.18s.06,1.43.79.49,4.75-6.16,5.64-7.32a4.25,4.25,0,0,0,.76-3.8A3.29,3.29,0,0,0,32.61,6.9c0-2.31,0-2.35,0-4.13s2.8-3.34,3.17-.93,1.65,8.87,1.09,11.78c-1,5.31-5.32,7.43-8.08,11.83v3.44Z"/></g></g></svg>