<svg xmlns="http://www.w3.org/2000/svg" width="44" height="44" viewBox="0 0 44 44">
  <path id="Icon_awesome-chevron-circle-right" data-name="Icon awesome-chevron-circle-right" d="M22.375.375a22,22,0,1,1-22,22A22,22,0,0,1,22.375.375Zm10.1,20.492L20.459,8.847a2.12,2.12,0,0,0-3.007,0l-1.508,1.508a2.12,2.12,0,0,0,0,3.007l9.013,9.013-9.013,9.013a2.12,2.12,0,0,0,0,3.007L17.452,35.9a2.12,2.12,0,0,0,3.007,0l12.02-12.02A2.131,2.131,0,0,0,32.479,20.867Z" transform="translate(-0.375 -0.375)" fill="#fff" opacity="0.5"/>
</svg>
